<!DOCTYPE svg PUBLIC "-//W3C//DTD SVG 1.1//EN" "http://www.w3.org/Graphics/SVG/1.1/DTD/svg11.dtd">
<svg xmlns="http://www.w3.org/2000/svg" xmlns:xlink="http://www.w3.org/1999/xlink" xmlns:jfreesvg="http://www.jfree.org/jfreesvg/svg" width="800" height="600" text-rendering="auto" shape-rendering="auto">
<defs><clipPath id="_1904701838200clip-0"><path d="M 0 0 L 800 0 L 800 600 L 0 600 L 0 0 Z "/></clipPath>
<clipPath id="_1904701838200clip-1"><path d="M 298.5 259.5 L 298.5 1059.5 L -301.5 1059.5 L -301.5 259.5 L 298.5 259.5 Z "/></clipPath>
<clipPath id="_1904701838200clip-2"><path d="M 56 35 L 56 523 L 788 523 L 788 35 Z "/></clipPath>
</defs>
<rect x="0" y="0" width="800" height="600" style="fill: rgb(255,255,255); fill-opacity: 1.0" transform="matrix(1,0,0,1,0,0)" clip-path="url(#_1904701838200clip-0)"/><g transform="matrix(1,0,0,1,0,0)"><text x="377.5" y="21.01" style="fill: rgb(0,0,0); fill-opacity: 1.0; font-family: Tahoma; font-size: 20px; font-weight: bold;" clip-path="url(#_1904701838200clip-0)">Title</text></g><rect x="215" y="578" width="370" height="21" style="fill: rgb(255,255,255); fill-opacity: 1.0" transform="matrix(1,0,0,1,0,0)" clip-path="url(#_1904701838200clip-0)"/><g style="fill: rgb(255,85,85); fill-opacity: 1.0; stroke: none" transform="matrix(1,0,0,1,0,0)" clip-path="url(#_1904701838200clip-0)"><path d="M 218 584.5 L 226 584.5 L 226 592.5 L 218 592.5 L 218 584.5 Z "/></g><g transform="matrix(1,0,0,1,0,0)"><text x="230" y="593.01" style="fill: rgb(64,64,64); fill-opacity: 1.0; font-family: Tahoma; font-size: 12px;" clip-path="url(#_1904701838200clip-0)">Row Key 1</text></g><g style="fill: rgb(85,85,255); fill-opacity: 1.0; stroke: none" transform="matrix(1,0,0,1,0,0)" clip-path="url(#_1904701838200clip-0)"><path d="M 292 584.5 L 300 584.5 L 300 592.5 L 292 592.5 L 292 584.5 Z "/></g><g transform="matrix(1,0,0,1,0,0)"><text x="304" y="593.01" style="fill: rgb(64,64,64); fill-opacity: 1.0; font-family: Tahoma; font-size: 12px;" clip-path="url(#_1904701838200clip-0)">Row Key 2</text></g><g style="fill: rgb(85,255,85); fill-opacity: 1.0; stroke: none" transform="matrix(1,0,0,1,0,0)" clip-path="url(#_1904701838200clip-0)"><path d="M 366 584.5 L 374 584.5 L 374 592.5 L 366 592.5 L 366 584.5 Z "/></g><g transform="matrix(1,0,0,1,0,0)"><text x="378" y="593.01" style="fill: rgb(64,64,64); fill-opacity: 1.0; font-family: Tahoma; font-size: 12px;" clip-path="url(#_1904701838200clip-0)">Row Key 3</text></g><g style="fill: rgb(255,255,85); fill-opacity: 1.0; stroke: none" transform="matrix(1,0,0,1,0,0)" clip-path="url(#_1904701838200clip-0)"><path d="M 440 584.5 L 448 584.5 L 448 592.5 L 440 592.5 L 440 584.5 Z "/></g><g transform="matrix(1,0,0,1,0,0)"><text x="452" y="593.01" style="fill: rgb(64,64,64); fill-opacity: 1.0; font-family: Tahoma; font-size: 12px;" clip-path="url(#_1904701838200clip-0)">Row Key 4</text></g><g style="fill: rgb(255,85,255); fill-opacity: 1.0; stroke: none" transform="matrix(1,0,0,1,0,0)" clip-path="url(#_1904701838200clip-0)"><path d="M 514 584.5 L 522 584.5 L 522 592.5 L 514 592.5 L 514 584.5 Z "/></g><g transform="matrix(1,0,0,1,0,0)"><text x="526" y="593.01" style="fill: rgb(64,64,64); fill-opacity: 1.0; font-family: Tahoma; font-size: 12px;" clip-path="url(#_1904701838200clip-0)">Row Key 5</text></g><rect x="56" y="35" width="732" height="488" style="fill: rgb(192,192,192); fill-opacity: 1.0" transform="matrix(1,0,0,1,0,0)" clip-path="url(#_1904701838200clip-0)"/><line x1="56" y1="527" x2="788" y2="527" style="stroke-width: 0.5;stroke: rgb(128,128,128);stroke-opacity: 1.0;stroke-linecap: square;shape-rendering:crispEdges;" transform="matrix(1,0,0,1,0,0)" clip-path="url(#_1904701838200clip-0)"/><line x1="143.84" y1="527" x2="143.84" y2="527" style="stroke-width: 0.5;stroke: rgb(128,128,128);stroke-opacity: 1.0;stroke-linecap: square;shape-rendering:crispEdges;" transform="matrix(1,0,0,1,0,0)" clip-path="url(#_1904701838200clip-0)"/><line x1="143.84" y1="527" x2="143.84" y2="529" style="stroke-width: 0.5;stroke: rgb(128,128,128);stroke-opacity: 1.0;stroke-linecap: square;shape-rendering:crispEdges;" transform="matrix(1,0,0,1,0,0)" clip-path="url(#_1904701838200clip-0)"/><line x1="282.92" y1="527" x2="282.92" y2="527" style="stroke-width: 0.5;stroke: rgb(128,128,128);stroke-opacity: 1.0;stroke-linecap: square;shape-rendering:crispEdges;" transform="matrix(1,0,0,1,0,0)" clip-path="url(#_1904701838200clip-0)"/><line x1="282.92" y1="527" x2="282.92" y2="529" style="stroke-width: 0.5;stroke: rgb(128,128,128);stroke-opacity: 1.0;stroke-linecap: square;shape-rendering:crispEdges;" transform="matrix(1,0,0,1,0,0)" clip-path="url(#_1904701838200clip-0)"/><line x1="422" y1="527" x2="422" y2="527" style="stroke-width: 0.5;stroke: rgb(128,128,128);stroke-opacity: 1.0;stroke-linecap: square;shape-rendering:crispEdges;" transform="matrix(1,0,0,1,0,0)" clip-path="url(#_1904701838200clip-0)"/><line x1="422" y1="527" x2="422" y2="529" style="stroke-width: 0.5;stroke: rgb(128,128,128);stroke-opacity: 1.0;stroke-linecap: square;shape-rendering:crispEdges;" transform="matrix(1,0,0,1,0,0)" clip-path="url(#_1904701838200clip-0)"/><line x1="561.08" y1="527" x2="561.08" y2="527" style="stroke-width: 0.5;stroke: rgb(128,128,128);stroke-opacity: 1.0;stroke-linecap: square;shape-rendering:crispEdges;" transform="matrix(1,0,0,1,0,0)" clip-path="url(#_1904701838200clip-0)"/><line x1="561.08" y1="527" x2="561.08" y2="529" style="stroke-width: 0.5;stroke: rgb(128,128,128);stroke-opacity: 1.0;stroke-linecap: square;shape-rendering:crispEdges;" transform="matrix(1,0,0,1,0,0)" clip-path="url(#_1904701838200clip-0)"/><line x1="700.16" y1="527" x2="700.16" y2="527" style="stroke-width: 0.5;stroke: rgb(128,128,128);stroke-opacity: 1.0;stroke-linecap: square;shape-rendering:crispEdges;" transform="matrix(1,0,0,1,0,0)" clip-path="url(#_1904701838200clip-0)"/><line x1="700.16" y1="527" x2="700.16" y2="529" style="stroke-width: 0.5;stroke: rgb(128,128,128);stroke-opacity: 1.0;stroke-linecap: square;shape-rendering:crispEdges;" transform="matrix(1,0,0,1,0,0)" clip-path="url(#_1904701838200clip-0)"/><g transform="matrix(1,0,0,1,0,0)"><text x="107.34" y="545.01" style="fill: rgb(64,64,64); fill-opacity: 1.0; font-family: Tahoma; font-size: 12px;" clip-path="url(#_1904701838200clip-0)">Column Key 1</text></g><g transform="matrix(1,0,0,1,0,0)"><text x="246.42" y="545.01" style="fill: rgb(64,64,64); fill-opacity: 1.0; font-family: Tahoma; font-size: 12px;" clip-path="url(#_1904701838200clip-0)">Column Key 2</text></g><g transform="matrix(1,0,0,1,0,0)"><text x="385.5" y="545.01" style="fill: rgb(64,64,64); fill-opacity: 1.0; font-family: Tahoma; font-size: 12px;" clip-path="url(#_1904701838200clip-0)">Column Key 3</text></g><g transform="matrix(1,0,0,1,0,0)"><text x="524.58" y="545.01" style="fill: rgb(64,64,64); fill-opacity: 1.0; font-family: Tahoma; font-size: 12px;" clip-path="url(#_1904701838200clip-0)">Column Key 4</text></g><g transform="matrix(1,0,0,1,0,0)"><text x="663.66" y="545.01" style="fill: rgb(64,64,64); fill-opacity: 1.0; font-family: Tahoma; font-size: 12px;" clip-path="url(#_1904701838200clip-0)">Column Key 5</text></g><g transform="matrix(1,0,0,1,0,0)"><text x="352.5" y="569.11" style="fill: rgb(64,64,64); fill-opacity: 1.0; font-family: Tahoma; font-size: 14px; font-weight: bold;" clip-path="url(#_1904701838200clip-0)">Category Axis Label</text></g><line x1="52" y1="35" x2="52" y2="523" style="stroke-width: 0.5;stroke: rgb(128,128,128);stroke-opacity: 1.0;stroke-linecap: square;shape-rendering:crispEdges;" transform="matrix(1,0,0,1,0,0)" clip-path="url(#_1904701838200clip-0)"/><g transform="matrix(1,0,0,1,0,0)"><text x="39" y="528.02" style="fill: rgb(64,64,64); fill-opacity: 1.0; font-family: Tahoma; font-size: 12px;" clip-path="url(#_1904701838200clip-0)">0</text></g><line x1="50" y1="523" x2="52" y2="523" style="stroke-width: 0.5;stroke: rgb(128,128,128);stroke-opacity: 1.0;stroke-linecap: square;shape-rendering:crispEdges;" transform="matrix(1,0,0,1,0,0)" clip-path="url(#_1904701838200clip-0)"/><g transform="matrix(1,0,0,1,0,0)"><text x="39" y="498.97" style="fill: rgb(64,64,64); fill-opacity: 1.0; font-family: Tahoma; font-size: 12px;" clip-path="url(#_1904701838200clip-0)">5</text></g><line x1="50" y1="493.95" x2="52" y2="493.95" style="stroke-width: 0.5;stroke: rgb(128,128,128);stroke-opacity: 1.0;stroke-linecap: square;shape-rendering:crispEdges;" transform="matrix(1,0,0,1,0,0)" clip-path="url(#_1904701838200clip-0)"/><g transform="matrix(1,0,0,1,0,0)"><text x="33" y="469.93" style="fill: rgb(64,64,64); fill-opacity: 1.0; font-family: Tahoma; font-size: 12px;" clip-path="url(#_1904701838200clip-0)">10</text></g><line x1="50" y1="464.9" x2="52" y2="464.9" style="stroke-width: 0.5;stroke: rgb(128,128,128);stroke-opacity: 1.0;stroke-linecap: square;shape-rendering:crispEdges;" transform="matrix(1,0,0,1,0,0)" clip-path="url(#_1904701838200clip-0)"/><g transform="matrix(1,0,0,1,0,0)"><text x="33" y="440.88" style="fill: rgb(64,64,64); fill-opacity: 1.0; font-family: Tahoma; font-size: 12px;" clip-path="url(#_1904701838200clip-0)">15</text></g><line x1="50" y1="435.86" x2="52" y2="435.86" style="stroke-width: 0.5;stroke: rgb(128,128,128);stroke-opacity: 1.0;stroke-linecap: square;shape-rendering:crispEdges;" transform="matrix(1,0,0,1,0,0)" clip-path="url(#_1904701838200clip-0)"/><g transform="matrix(1,0,0,1,0,0)"><text x="33" y="411.83" style="fill: rgb(64,64,64); fill-opacity: 1.0; font-family: Tahoma; font-size: 12px;" clip-path="url(#_1904701838200clip-0)">20</text></g><line x1="50" y1="406.81" x2="52" y2="406.81" style="stroke-width: 0.5;stroke: rgb(128,128,128);stroke-opacity: 1.0;stroke-linecap: square;shape-rendering:crispEdges;" transform="matrix(1,0,0,1,0,0)" clip-path="url(#_1904701838200clip-0)"/><g transform="matrix(1,0,0,1,0,0)"><text x="33" y="382.78" style="fill: rgb(64,64,64); fill-opacity: 1.0; font-family: Tahoma; font-size: 12px;" clip-path="url(#_1904701838200clip-0)">25</text></g><line x1="50" y1="377.76" x2="52" y2="377.76" style="stroke-width: 0.5;stroke: rgb(128,128,128);stroke-opacity: 1.0;stroke-linecap: square;shape-rendering:crispEdges;" transform="matrix(1,0,0,1,0,0)" clip-path="url(#_1904701838200clip-0)"/><g transform="matrix(1,0,0,1,0,0)"><text x="33" y="353.74" style="fill: rgb(64,64,64); fill-opacity: 1.0; font-family: Tahoma; font-size: 12px;" clip-path="url(#_1904701838200clip-0)">30</text></g><line x1="50" y1="348.71" x2="52" y2="348.71" style="stroke-width: 0.5;stroke: rgb(128,128,128);stroke-opacity: 1.0;stroke-linecap: square;shape-rendering:crispEdges;" transform="matrix(1,0,0,1,0,0)" clip-path="url(#_1904701838200clip-0)"/><g transform="matrix(1,0,0,1,0,0)"><text x="33" y="324.69" style="fill: rgb(64,64,64); fill-opacity: 1.0; font-family: Tahoma; font-size: 12px;" clip-path="url(#_1904701838200clip-0)">35</text></g><line x1="50" y1="319.67" x2="52" y2="319.67" style="stroke-width: 0.5;stroke: rgb(128,128,128);stroke-opacity: 1.0;stroke-linecap: square;shape-rendering:crispEdges;" transform="matrix(1,0,0,1,0,0)" clip-path="url(#_1904701838200clip-0)"/><g transform="matrix(1,0,0,1,0,0)"><text x="33" y="295.64" style="fill: rgb(64,64,64); fill-opacity: 1.0; font-family: Tahoma; font-size: 12px;" clip-path="url(#_1904701838200clip-0)">40</text></g><line x1="50" y1="290.62" x2="52" y2="290.62" style="stroke-width: 0.5;stroke: rgb(128,128,128);stroke-opacity: 1.0;stroke-linecap: square;shape-rendering:crispEdges;" transform="matrix(1,0,0,1,0,0)" clip-path="url(#_1904701838200clip-0)"/><g transform="matrix(1,0,0,1,0,0)"><text x="33" y="266.59" style="fill: rgb(64,64,64); fill-opacity: 1.0; font-family: Tahoma; font-size: 12px;" clip-path="url(#_1904701838200clip-0)">45</text></g><line x1="50" y1="261.57" x2="52" y2="261.57" style="stroke-width: 0.5;stroke: rgb(128,128,128);stroke-opacity: 1.0;stroke-linecap: square;shape-rendering:crispEdges;" transform="matrix(1,0,0,1,0,0)" clip-path="url(#_1904701838200clip-0)"/><g transform="matrix(1,0,0,1,0,0)"><text x="33" y="237.55" style="fill: rgb(64,64,64); fill-opacity: 1.0; font-family: Tahoma; font-size: 12px;" clip-path="url(#_1904701838200clip-0)">50</text></g><line x1="50" y1="232.52" x2="52" y2="232.52" style="stroke-width: 0.5;stroke: rgb(128,128,128);stroke-opacity: 1.0;stroke-linecap: square;shape-rendering:crispEdges;" transform="matrix(1,0,0,1,0,0)" clip-path="url(#_1904701838200clip-0)"/><g transform="matrix(1,0,0,1,0,0)"><text x="33" y="208.5" style="fill: rgb(64,64,64); fill-opacity: 1.0; font-family: Tahoma; font-size: 12px;" clip-path="url(#_1904701838200clip-0)">55</text></g><line x1="50" y1="203.48" x2="52" y2="203.48" style="stroke-width: 0.5;stroke: rgb(128,128,128);stroke-opacity: 1.0;stroke-linecap: square;shape-rendering:crispEdges;" transform="matrix(1,0,0,1,0,0)" clip-path="url(#_1904701838200clip-0)"/><g transform="matrix(1,0,0,1,0,0)"><text x="33" y="179.45" style="fill: rgb(64,64,64); fill-opacity: 1.0; font-family: Tahoma; font-size: 12px;" clip-path="url(#_1904701838200clip-0)">60</text></g><line x1="50" y1="174.43" x2="52" y2="174.43" style="stroke-width: 0.5;stroke: rgb(128,128,128);stroke-opacity: 1.0;stroke-linecap: square;shape-rendering:crispEdges;" transform="matrix(1,0,0,1,0,0)" clip-path="url(#_1904701838200clip-0)"/><g transform="matrix(1,0,0,1,0,0)"><text x="33" y="150.4" style="fill: rgb(64,64,64); fill-opacity: 1.0; font-family: Tahoma; font-size: 12px;" clip-path="url(#_1904701838200clip-0)">65</text></g><line x1="50" y1="145.38" x2="52" y2="145.38" style="stroke-width: 0.5;stroke: rgb(128,128,128);stroke-opacity: 1.0;stroke-linecap: square;shape-rendering:crispEdges;" transform="matrix(1,0,0,1,0,0)" clip-path="url(#_1904701838200clip-0)"/><g transform="matrix(1,0,0,1,0,0)"><text x="33" y="121.35" style="fill: rgb(64,64,64); fill-opacity: 1.0; font-family: Tahoma; font-size: 12px;" clip-path="url(#_1904701838200clip-0)">70</text></g><line x1="50" y1="116.33" x2="52" y2="116.33" style="stroke-width: 0.5;stroke: rgb(128,128,128);stroke-opacity: 1.0;stroke-linecap: square;shape-rendering:crispEdges;" transform="matrix(1,0,0,1,0,0)" clip-path="url(#_1904701838200clip-0)"/><g transform="matrix(1,0,0,1,0,0)"><text x="33" y="92.31" style="fill: rgb(64,64,64); fill-opacity: 1.0; font-family: Tahoma; font-size: 12px;" clip-path="url(#_1904701838200clip-0)">75</text></g><line x1="50" y1="87.29" x2="52" y2="87.29" style="stroke-width: 0.5;stroke: rgb(128,128,128);stroke-opacity: 1.0;stroke-linecap: square;shape-rendering:crispEdges;" transform="matrix(1,0,0,1,0,0)" clip-path="url(#_1904701838200clip-0)"/><g transform="matrix(1,0,0,1,0,0)"><text x="33" y="63.26" style="fill: rgb(64,64,64); fill-opacity: 1.0; font-family: Tahoma; font-size: 12px;" clip-path="url(#_1904701838200clip-0)">80</text></g><line x1="50" y1="58.24" x2="52" y2="58.24" style="stroke-width: 0.5;stroke: rgb(128,128,128);stroke-opacity: 1.0;stroke-linecap: square;shape-rendering:crispEdges;" transform="matrix(1,0,0,1,0,0)" clip-path="url(#_1904701838200clip-0)"/><g style="fill: rgb(64,64,64); fill-opacity: 1.0; stroke: none" transform="matrix(0,-1,1,0,-259.5,298.5)" clip-path="url(#_1904701838200clip-1)"><path d="M -28.44 274.44 L -31.94 284.61 L -34.61 284.61 L -38.11 274.44 L -35.45 274.44 L -33.23 281.33 L -31.03 274.44 L -28.44 274.44 Z  M -23.41 282.61 L -23.41 281 Q -24.01 281.06 -24.39 281.11 Q -24.77 281.16 -25.13 281.28 Q -25.44 281.39 -25.62 281.62 Q -25.79 281.84 -25.79 282.2 Q -25.79 282.75 -25.5 282.95 Q -25.21 283.16 -24.65 283.16 Q -24.33 283.16 -24.01 283.01 Q -23.68 282.86 -23.41 282.61 Z  M -23.41 283.8 Q -23.65 284 -23.84 284.16 Q -24.04 284.33 -24.37 284.5 Q -24.69 284.66 -25 284.73 Q -25.3 284.81 -25.85 284.81 Q -26.87 284.81 -27.54 284.13 Q -28.21 283.45 -28.21 282.41 Q -28.21 281.55 -27.87 281.02 Q -27.52 280.5 -26.88 280.19 Q -26.24 279.87 -25.33 279.75 Q -24.43 279.62 -23.4 279.56 L -23.4 279.51 Q -23.4 278.89 -23.87 278.65 Q -24.33 278.41 -25.27 278.41 Q -25.69 278.41 -26.26 278.55 Q -26.82 278.7 -27.37 278.95 L -27.57 278.95 L -27.57 277.09 Q -27.21 277 -26.42 276.86 Q -25.63 276.72 -24.82 276.72 Q -22.83 276.72 -21.93 277.37 Q -21.02 278.03 -21.02 279.39 L -21.02 284.61 L -23.41 284.61 L -23.41 283.8 Z  M -16.86 284.61 L -19.25 284.61 L -19.25 273.97 L -16.86 273.97 L -16.86 284.61 Z  M -7.9 284.61 L -10.29 284.61 L -10.29 283.76 Q -10.92 284.28 -11.43 284.55 Q -11.95 284.83 -12.67 284.83 Q -13.81 284.83 -14.45 284.1 Q -15.09 283.37 -15.09 281.92 L -15.09 276.94 L -12.68 276.94 L -12.68 280.73 Q -12.68 281.33 -12.65 281.71 Q -12.62 282.09 -12.51 282.34 Q -12.4 282.58 -12.17 282.7 Q -11.95 282.83 -11.53 282.83 Q -11.28 282.83 -10.93 282.7 Q -10.59 282.58 -10.29 282.37 L -10.29 276.94 L -7.9 276.94 L -7.9 284.61 Z  M -2.14 284.81 Q -4.31 284.81 -5.47 283.77 Q -6.63 282.73 -6.63 280.81 Q -6.63 278.94 -5.55 277.81 Q -4.47 276.69 -2.53 276.69 Q -0.77 276.69 0.12 277.64 Q 1.01 278.59 1.01 280.36 L 1.01 281.22 L -4.24 281.22 Q -4.19 281.76 -4 282.12 Q -3.81 282.47 -3.5 282.69 Q -3.19 282.91 -2.78 282.99 Q -2.38 283.08 -1.89 283.08 Q -1.47 283.08 -1.06 282.99 Q -0.66 282.91 -0.33 282.75 Q -0.03 282.62 0.22 282.47 Q 0.47 282.31 0.62 282.2 L 0.87 282.2 L 0.87 284.17 Q 0.58 284.3 0.33 284.4 Q 0.09 284.5 -0.33 284.59 Q -0.72 284.7 -1.13 284.76 Q -1.55 284.81 -2.14 284.81 Z  M -1.34 279.78 Q -1.36 279.03 -1.7 278.63 Q -2.03 278.23 -2.72 278.23 Q -3.41 278.23 -3.8 278.65 Q -4.19 279.06 -4.24 279.78 L -1.34 279.78 Z  M 5.38 284.61 L 8.82 274.44 L 11.62 274.44 L 15.05 284.61 L 12.43 284.61 L 11.79 282.53 L 8.58 282.53 L 7.94 284.61 L 5.38 284.61 Z  M 11.23 280.69 L 10.19 277.33 L 9.15 280.69 L 11.23 280.69 Z  M 23.5 284.61 L 20.7 284.61 L 19.23 282.41 L 17.73 284.61 L 14.98 284.61 L 17.81 280.78 L 15.03 276.94 L 17.84 276.94 L 19.28 279.09 L 20.72 276.94 L 23.47 276.94 L 20.68 280.72 L 23.5 284.61 Z  M 26.79 284.61 L 24.4 284.61 L 24.4 276.94 L 26.79 276.94 L 26.79 284.61 Z  M 26.85 275.84 L 24.32 275.84 L 24.32 273.97 L 26.85 273.97 L 26.85 275.84 Z  M 30.95 284.83 Q 30.11 284.83 29.35 284.64 Q 28.59 284.45 28.11 284.2 L 28.11 282.19 L 28.31 282.19 Q 28.47 282.31 28.68 282.47 Q 28.9 282.62 29.29 282.8 Q 29.64 282.95 30.06 283.07 Q 30.48 283.19 30.97 283.19 Q 31.48 283.19 31.86 283.02 Q 32.25 282.86 32.25 282.53 Q 32.25 282.25 32.07 282.12 Q 31.89 281.98 31.37 281.86 Q 31.11 281.8 30.69 281.72 Q 30.28 281.64 29.95 281.53 Q 29.04 281.25 28.59 280.7 Q 28.14 280.16 28.14 279.25 Q 28.14 278.75 28.37 278.29 Q 28.61 277.83 29.08 277.48 Q 29.53 277.12 30.2 276.92 Q 30.87 276.72 31.72 276.72 Q 32.53 276.72 33.21 276.88 Q 33.89 277.05 34.34 277.26 L 34.34 279.2 L 34.15 279.2 Q 34.03 279.11 33.76 278.95 Q 33.5 278.8 33.25 278.67 Q 32.95 278.53 32.58 278.44 Q 32.2 278.36 31.81 278.36 Q 31.29 278.36 30.93 278.54 Q 30.58 278.72 30.58 279.01 Q 30.58 279.26 30.75 279.42 Q 30.93 279.58 31.53 279.72 Q 31.83 279.8 32.22 279.87 Q 32.62 279.94 33 280.06 Q 33.83 280.33 34.25 280.84 Q 34.68 281.36 34.68 282.2 Q 34.68 282.75 34.43 283.24 Q 34.17 283.73 33.72 284.06 Q 33.22 284.42 32.55 284.62 Q 31.89 284.83 30.95 284.83 Z  M 46.85 284.61 L 40.05 284.61 L 40.05 274.44 L 42.62 274.44 L 42.62 282.67 L 46.85 282.67 L 46.85 284.61 Z  M 52.16 282.61 L 52.16 281 Q 51.57 281.06 51.18 281.11 Q 50.8 281.16 50.44 281.28 Q 50.13 281.39 49.96 281.62 Q 49.78 281.84 49.78 282.2 Q 49.78 282.75 50.07 282.95 Q 50.36 283.16 50.92 283.16 Q 51.24 283.16 51.57 283.01 Q 51.89 282.86 52.16 282.61 Z  M 52.16 283.8 Q 51.92 284 51.73 284.16 Q 51.53 284.33 51.21 284.5 Q 50.88 284.66 50.57 284.73 Q 50.27 284.81 49.72 284.81 Q 48.71 284.81 48.03 284.13 Q 47.36 283.45 47.36 282.41 Q 47.36 281.55 47.71 281.02 Q 48.05 280.5 48.69 280.19 Q 49.33 279.87 50.24 279.75 Q 51.14 279.62 52.17 279.56 L 52.17 279.51 Q 52.17 278.89 51.71 278.65 Q 51.24 278.41 50.3 278.41 Q 49.88 278.41 49.32 278.55 Q 48.75 278.7 48.21 278.95 L 48 278.95 L 48 277.09 Q 48.36 277 49.15 276.86 Q 49.94 276.72 50.75 276.72 Q 52.74 276.72 53.64 277.37 Q 54.55 278.03 54.55 279.39 L 54.55 284.61 L 52.16 284.61 L 52.16 283.8 Z  M 61.4 280.72 Q 61.4 279.56 61.05 279.07 Q 60.7 278.58 59.98 278.58 Q 59.65 278.58 59.33 278.68 Q 59.01 278.78 58.71 278.98 L 58.71 282.84 Q 58.95 282.94 59.19 282.98 Q 59.43 283.01 59.67 283.01 Q 60.54 283.01 60.97 282.44 Q 61.4 281.86 61.4 280.72 Z  M 63.84 280.67 Q 63.84 282.5 62.91 283.63 Q 61.98 284.76 60.6 284.76 Q 60.04 284.76 59.61 284.63 Q 59.18 284.5 58.71 284.22 L 58.6 284.61 L 56.32 284.61 L 56.32 273.97 L 58.71 273.97 L 58.71 277.73 Q 59.23 277.28 59.77 277 Q 60.32 276.72 61.04 276.72 Q 62.38 276.72 63.11 277.76 Q 63.84 278.81 63.84 280.67 Z  M 69.09 284.81 Q 66.92 284.81 65.76 283.77 Q 64.6 282.73 64.6 280.81 Q 64.6 278.94 65.68 277.81 Q 66.76 276.69 68.7 276.69 Q 70.46 276.69 71.35 277.64 Q 72.25 278.59 72.25 280.36 L 72.25 281.22 L 67 281.22 Q 67.04 281.76 67.23 282.12 Q 67.42 282.47 67.73 282.69 Q 68.04 282.91 68.45 282.99 Q 68.85 283.08 69.34 283.08 Q 69.76 283.08 70.17 282.99 Q 70.57 282.91 70.9 282.75 Q 71.2 282.62 71.45 282.47 Q 71.7 282.31 71.85 282.2 L 72.1 282.2 L 72.1 284.17 Q 71.81 284.3 71.57 284.4 Q 71.32 284.5 70.9 284.59 Q 70.51 284.7 70.1 284.76 Q 69.68 284.81 69.09 284.81 Z  M 69.89 279.78 Q 69.87 279.03 69.53 278.63 Q 69.2 278.23 68.51 278.23 Q 67.82 278.23 67.43 278.65 Q 67.04 279.06 67 279.78 L 69.89 279.78 Z  M 75.87 284.61 L 73.48 284.61 L 73.48 273.97 L 75.87 273.97 L 75.87 284.61 Z "/></g><line x1="56" y1="523" x2="788" y2="523" style="stroke-width: 0.5;stroke: rgb(255,255,255);stroke-opacity: 1.0;stroke-linejoin: bevel;stroke-dasharray: 2.0, 2.0;shape-rendering:crispEdges;" transform="matrix(1,0,0,1,0,0)" clip-path="url(#_1904701838200clip-2)"/><line x1="56" y1="493.95" x2="788" y2="493.95" style="stroke-width: 0.5;stroke: rgb(255,255,255);stroke-opacity: 1.0;stroke-linejoin: bevel;stroke-dasharray: 2.0, 2.0;shape-rendering:crispEdges;" transform="matrix(1,0,0,1,0,0)" clip-path="url(#_1904701838200clip-2)"/><line x1="56" y1="464.9" x2="788" y2="464.9" style="stroke-width: 0.5;stroke: rgb(255,255,255);stroke-opacity: 1.0;stroke-linejoin: bevel;stroke-dasharray: 2.0, 2.0;shape-rendering:crispEdges;" transform="matrix(1,0,0,1,0,0)" clip-path="url(#_1904701838200clip-2)"/><line x1="56" y1="435.86" x2="788" y2="435.86" style="stroke-width: 0.5;stroke: rgb(255,255,255);stroke-opacity: 1.0;stroke-linejoin: bevel;stroke-dasharray: 2.0, 2.0;shape-rendering:crispEdges;" transform="matrix(1,0,0,1,0,0)" clip-path="url(#_1904701838200clip-2)"/><line x1="56" y1="406.81" x2="788" y2="406.81" style="stroke-width: 0.5;stroke: rgb(255,255,255);stroke-opacity: 1.0;stroke-linejoin: bevel;stroke-dasharray: 2.0, 2.0;shape-rendering:crispEdges;" transform="matrix(1,0,0,1,0,0)" clip-path="url(#_1904701838200clip-2)"/><line x1="56" y1="377.76" x2="788" y2="377.76" style="stroke-width: 0.5;stroke: rgb(255,255,255);stroke-opacity: 1.0;stroke-linejoin: bevel;stroke-dasharray: 2.0, 2.0;shape-rendering:crispEdges;" transform="matrix(1,0,0,1,0,0)" clip-path="url(#_1904701838200clip-2)"/><line x1="56" y1="348.71" x2="788" y2="348.71" style="stroke-width: 0.5;stroke: rgb(255,255,255);stroke-opacity: 1.0;stroke-linejoin: bevel;stroke-dasharray: 2.0, 2.0;shape-rendering:crispEdges;" transform="matrix(1,0,0,1,0,0)" clip-path="url(#_1904701838200clip-2)"/><line x1="56" y1="319.67" x2="788" y2="319.67" style="stroke-width: 0.5;stroke: rgb(255,255,255);stroke-opacity: 1.0;stroke-linejoin: bevel;stroke-dasharray: 2.0, 2.0;shape-rendering:crispEdges;" transform="matrix(1,0,0,1,0,0)" clip-path="url(#_1904701838200clip-2)"/><line x1="56" y1="290.62" x2="788" y2="290.62" style="stroke-width: 0.5;stroke: rgb(255,255,255);stroke-opacity: 1.0;stroke-linejoin: bevel;stroke-dasharray: 2.0, 2.0;shape-rendering:crispEdges;" transform="matrix(1,0,0,1,0,0)" clip-path="url(#_1904701838200clip-2)"/><line x1="56" y1="261.57" x2="788" y2="261.57" style="stroke-width: 0.5;stroke: rgb(255,255,255);stroke-opacity: 1.0;stroke-linejoin: bevel;stroke-dasharray: 2.0, 2.0;shape-rendering:crispEdges;" transform="matrix(1,0,0,1,0,0)" clip-path="url(#_1904701838200clip-2)"/><line x1="56" y1="232.52" x2="788" y2="232.52" style="stroke-width: 0.5;stroke: rgb(255,255,255);stroke-opacity: 1.0;stroke-linejoin: bevel;stroke-dasharray: 2.0, 2.0;shape-rendering:crispEdges;" transform="matrix(1,0,0,1,0,0)" clip-path="url(#_1904701838200clip-2)"/><line x1="56" y1="203.48" x2="788" y2="203.48" style="stroke-width: 0.5;stroke: rgb(255,255,255);stroke-opacity: 1.0;stroke-linejoin: bevel;stroke-dasharray: 2.0, 2.0;shape-rendering:crispEdges;" transform="matrix(1,0,0,1,0,0)" clip-path="url(#_1904701838200clip-2)"/><line x1="56" y1="174.43" x2="788" y2="174.43" style="stroke-width: 0.5;stroke: rgb(255,255,255);stroke-opacity: 1.0;stroke-linejoin: bevel;stroke-dasharray: 2.0, 2.0;shape-rendering:crispEdges;" transform="matrix(1,0,0,1,0,0)" clip-path="url(#_1904701838200clip-2)"/><line x1="56" y1="145.38" x2="788" y2="145.38" style="stroke-width: 0.5;stroke: rgb(255,255,255);stroke-opacity: 1.0;stroke-linejoin: bevel;stroke-dasharray: 2.0, 2.0;shape-rendering:crispEdges;" transform="matrix(1,0,0,1,0,0)" clip-path="url(#_1904701838200clip-2)"/><line x1="56" y1="116.33" x2="788" y2="116.33" style="stroke-width: 0.5;stroke: rgb(255,255,255);stroke-opacity: 1.0;stroke-linejoin: bevel;stroke-dasharray: 2.0, 2.0;shape-rendering:crispEdges;" transform="matrix(1,0,0,1,0,0)" clip-path="url(#_1904701838200clip-2)"/><line x1="56" y1="87.29" x2="788" y2="87.29" style="stroke-width: 0.5;stroke: rgb(255,255,255);stroke-opacity: 1.0;stroke-linejoin: bevel;stroke-dasharray: 2.0, 2.0;shape-rendering:crispEdges;" transform="matrix(1,0,0,1,0,0)" clip-path="url(#_1904701838200clip-2)"/><line x1="56" y1="58.24" x2="788" y2="58.24" style="stroke-width: 0.5;stroke: rgb(255,255,255);stroke-opacity: 1.0;stroke-linejoin: bevel;stroke-dasharray: 2.0, 2.0;shape-rendering:crispEdges;" transform="matrix(1,0,0,1,0,0)" clip-path="url(#_1904701838200clip-2)"/><rect x="92.6" y="348.71" width="14.64" height="174.29" style="fill: rgb(255,85,85); fill-opacity: 1.0" transform="matrix(1,0,0,1,0,0)" clip-path="url(#_1904701838200clip-2)"/><g transform="matrix(1,0,0,1,0,0)"><text x="93.42" y="344.24" style="fill: rgb(0,0,0); fill-opacity: 1.0; font-family: Tahoma; font-size: 12px;" clip-path="url(#_1904701838200clip-2)">30</text></g><rect x="253.64" y="232.52" width="14.64" height="290.48" style="fill: rgb(85,85,255); fill-opacity: 1.0" transform="matrix(1,0,0,1,0,0)" clip-path="url(#_1904701838200clip-2)"/><g transform="matrix(1,0,0,1,0,0)"><text x="254.46" y="228.05" style="fill: rgb(0,0,0); fill-opacity: 1.0; font-family: Tahoma; font-size: 12px;" clip-path="url(#_1904701838200clip-2)">50</text></g><rect x="414.68" y="290.62" width="14.64" height="232.38" style="fill: rgb(85,255,85); fill-opacity: 1.0" transform="matrix(1,0,0,1,0,0)" clip-path="url(#_1904701838200clip-2)"/><g transform="matrix(1,0,0,1,0,0)"><text x="415.5" y="286.14" style="fill: rgb(0,0,0); fill-opacity: 1.0; font-family: Tahoma; font-size: 12px;" clip-path="url(#_1904701838200clip-2)">40</text></g><rect x="575.72" y="58.24" width="14.64" height="464.76" style="fill: rgb(255,255,85); fill-opacity: 1.0" transform="matrix(1,0,0,1,0,0)" clip-path="url(#_1904701838200clip-2)"/><g transform="matrix(1,0,0,1,0,0)"><text x="576.54" y="53.76" style="fill: rgb(0,0,0); fill-opacity: 1.0; font-family: Tahoma; font-size: 12px;" clip-path="url(#_1904701838200clip-2)">80</text></g><rect x="736.76" y="174.43" width="14.64" height="348.57" style="fill: rgb(255,85,255); fill-opacity: 1.0" transform="matrix(1,0,0,1,0,0)" clip-path="url(#_1904701838200clip-2)"/><g transform="matrix(1,0,0,1,0,0)"><text x="737.58" y="169.95" style="fill: rgb(0,0,0); fill-opacity: 1.0; font-family: Tahoma; font-size: 12px;" clip-path="url(#_1904701838200clip-2)">60</text></g><rect x="56" y="35" width="732" height="488" style="stroke-width: 0.5;stroke: rgb(0,0,0);stroke-opacity: 1.0;stroke-linecap: round;stroke-linejoin: round;shape-rendering:crispEdges;; fill: none" transform="matrix(1,0,0,1,0,0)" clip-path="url(#_1904701838200clip-0)"/></svg>
